<?xml version="1.0" encoding="UTF-8"?>
<svg xmlns="http://www.w3.org/2000/svg" viewBox="0 0 1280 820" fill="none">
  <defs>
    <linearGradient id="g" x1="180" y1="120" x2="1080" y2="720" gradientUnits="userSpaceOnUse">
      <stop stop-color="#ffb86c"/>
      <stop offset="1" stop-color="#4de1ff"/>
    </linearGradient>
    <radialGradient id="r" cx="0" cy="0" r="1" gradientUnits="userSpaceOnUse" gradientTransform="translate(782 224) rotate(129) scale(520 740)">
      <stop stop-color="#ffb86c" stop-opacity="0.72"/>
      <stop offset="0.54" stop-color="#4de1ff" stop-opacity="0.28"/>
      <stop offset="1" stop-color="#0c0c0c" stop-opacity="0"/>
    </radialGradient>
    <filter id="blur"><feGaussianBlur stdDeviation="42"/></filter>
  </defs>
  <rect width="1280" height="820" fill="#0c0c0c"/>
  <circle cx="322" cy="188" r="190" fill="#ffb86c" opacity="0.23" filter="url(#blur)"/>
  <circle cx="1002" cy="612" r="230" fill="#4de1ff" opacity="0.26" filter="url(#blur)"/>
  <rect x="86" y="70" width="1108" height="680" rx="76" fill="url(#r)" stroke="rgba(215,226,234,0.14)" stroke-width="2"/>
  <g stroke="rgba(244,248,251,0.82)" stroke-width="20" stroke-linecap="round" stroke-linejoin="round">
    <path d="M316 554c130-212 278 94 386-118 68-136 172-128 262-38"/><circle cx="316" cy="554" r="42"/><circle cx="650" cy="458" r="42"/><circle cx="964" cy="398" r="42"/><path d="M456 272h190M456 344h126"/><rect x="408" y="218" width="292" height="176" rx="32"/>
  </g>
  <g fill="url(#g)" opacity="0.9">
    <circle cx="232" cy="614" r="16"/>
    <circle cx="1032" cy="180" r="18"/>
    <circle cx="1088" cy="246" r="10"/>
    <rect x="180" y="214" width="92" height="12" rx="6"/>
    <rect x="1014" y="662" width="112" height="12" rx="6"/>
  </g>
</svg>