<?xml version="1.0" encoding="UTF-8"?>
<svg xmlns="http://www.w3.org/2000/svg" viewBox="0 0 1280 820" fill="none">
  <defs>
    <linearGradient id="g" x1="180" y1="120" x2="1080" y2="720" gradientUnits="userSpaceOnUse">
      <stop stop-color="#ffb000"/>
      <stop offset="1" stop-color="#7621b0"/>
    </linearGradient>
    <radialGradient id="r" cx="0" cy="0" r="1" gradientUnits="userSpaceOnUse" gradientTransform="translate(782 224) rotate(129) scale(520 740)">
      <stop stop-color="#ffb000" stop-opacity="0.72"/>
      <stop offset="0.54" stop-color="#7621b0" stop-opacity="0.28"/>
      <stop offset="1" stop-color="#0c0c0c" stop-opacity="0"/>
    </radialGradient>
    <filter id="blur"><feGaussianBlur stdDeviation="42"/></filter>
  </defs>
  <rect width="1280" height="820" fill="#0c0c0c"/>
  <circle cx="322" cy="188" r="190" fill="#ffb000" opacity="0.23" filter="url(#blur)"/>
  <circle cx="1002" cy="612" r="230" fill="#7621b0" opacity="0.26" filter="url(#blur)"/>
  <rect x="86" y="70" width="1108" height="680" rx="76" fill="url(#r)" stroke="rgba(215,226,234,0.14)" stroke-width="2"/>
  <g stroke="rgba(244,248,251,0.82)" stroke-width="20" stroke-linecap="round" stroke-linejoin="round">
    <path d="M392 240h496c34 0 62 28 62 62v216c0 34-28 62-62 62H392c-34 0-62-28-62-62V302c0-34 28-62 62-62z"/><path d="M420 330h440M420 410h440M420 490h440"/><circle cx="500" cy="330" r="20"/><circle cx="620" cy="410" r="20"/><circle cx="740" cy="490" r="20"/>
  </g>
  <g fill="url(#g)" opacity="0.9">
    <circle cx="232" cy="614" r="16"/>
    <circle cx="1032" cy="180" r="18"/>
    <circle cx="1088" cy="246" r="10"/>
    <rect x="180" y="214" width="92" height="12" rx="6"/>
    <rect x="1014" y="662" width="112" height="12" rx="6"/>
  </g>
</svg>